<svg width="88" height="52" viewBox="0 0 88 52" fill="none" xmlns="http://www.w3.org/2000/svg">
<path fill-rule="evenodd" clip-rule="evenodd" d="M41.2035 16.2633V16.4537C41.8974 16.614 45.3286 17.8442 45.8794 18.1947C46.4824 18.5787 48.2354 20.7972 48.8537 21.6228C50.6194 23.9798 52.1377 26.6796 53.5306 29.7479C54.8157 32.578 55.906 36.1733 56.5727 39.4989C56.9384 41.3225 57.2634 43.1283 57.4931 44.995C57.6453 46.2317 57.8495 50.1074 58.1253 50.9227L61.0961 42.5201C63.8054 35.7614 66.8598 29.942 71.2012 24.1847L73.7676 21.0148C71.9423 20.9151 70.6218 20.3565 69.799 19.1661C67.4822 15.8137 71.3952 12.151 73.9327 13.7881C75.2175 14.6172 75.6553 17.5042 73.2394 16.9574C72.9908 16.3185 73.0973 15.2695 72.0528 15.4454C71.2743 15.5766 71.036 16.3744 71.1902 17.2322C71.7461 20.3283 76.8851 19.359 76.9721 15.5514C77.0194 13.4737 75.991 12.9638 74.8035 12.2139C77.1632 12.0846 78.6095 11.8757 78.9613 9.64019C76.4783 8.6591 75.8015 9.54693 74.3018 10.709C75.2237 6.62413 71.9557 5.31637 69.864 5.96446C66.4998 7.007 67.9383 11.7846 70.4092 10.1072C70.4668 8.88806 69.8159 9.17727 69.9912 7.99847C71.7569 6.88706 72.9121 9.0417 72.4482 10.4879C71.2547 14.2079 63.7716 12.1196 66.2762 6.6368C66.659 5.79896 66.9573 5.73158 67.5004 5.11179C65.4171 4.65291 64.2259 3.88529 63.5112 2.57644L59.5475 1.33215C55.3908 0.195267 55.3509 -0.641493 54.0771 0.660074C53.5969 1.15089 53.2363 1.51099 52.7483 1.9987C51.8673 2.8798 51.0047 3.67007 50.1688 4.57394C47.5418 7.41427 45.5825 10.026 43.2968 13.1669L41.2036 16.2635L41.2035 16.2633Z" fill="#032A7A"/>
<path fill-rule="evenodd" clip-rule="evenodd" d="M29.8629 50.8102L57.7348 51.068C58.1258 50.9859 57.9046 51.0657 58.1258 50.9231C57.8499 50.1079 57.6459 46.2321 57.4936 44.9955C57.264 43.1287 56.9389 41.3228 56.5732 39.4993C55.9063 36.1738 54.8161 32.5784 53.5311 29.7483C52.1382 26.68 50.6197 23.9802 48.8542 21.6232C48.2359 20.7977 46.4828 18.5792 45.8799 18.1951C45.3292 17.8445 41.8978 16.6145 41.2039 16.4541C40.0011 17.9938 38.0686 21.8419 37.1499 23.9057C34.4966 29.8656 32.8966 34.4678 31.5156 41.0191C31.19 42.5643 30.1575 50.2488 29.863 50.8101L29.8629 50.8102Z" fill="#034E8E"/>
<path fill-rule="evenodd" clip-rule="evenodd" d="M29.8627 50.8099C30.1573 50.2484 31.1898 42.5641 31.5153 41.0189C32.8964 34.4678 34.4964 29.8655 37.1496 23.9055C38.0683 21.8417 40.0009 17.9936 41.2037 16.4539V16.2635C40.4403 16.1943 39.9494 15.865 39.218 15.6181L25.1741 10.82C24.4613 10.5803 9.68801 5.87222 8.53212 5.776L13.2571 9.22749C15.2577 10.7935 17.7841 13.5393 19.3248 15.6027C23.8164 21.6185 26.5717 28.1869 28.1016 35.7999C28.9811 40.1758 29.8626 45.5958 29.8626 50.8097L29.8627 50.8099Z" fill="#EC1B24"/>
<path fill-rule="evenodd" clip-rule="evenodd" d="M73.7678 21.0147L76.745 17.9964C78.8827 15.8461 85.5707 10.7703 87.6326 10.2197L66.6356 3.48725C66.093 3.31408 65.6956 3.23322 65.1227 3.04441C64.5604 2.85924 64.0915 2.63149 63.5113 2.57623C64.226 3.88508 65.4171 4.65257 67.5005 5.11158C66.9574 5.73137 66.659 5.79875 66.2763 6.63659C63.7717 12.1193 71.2547 14.2076 72.4483 10.4877C72.9123 9.04148 71.7569 6.88685 69.9912 7.99826C69.8159 9.17706 70.4668 8.88785 70.4093 10.1069C67.9385 11.7844 66.4999 7.00693 69.864 5.96424C71.9557 5.31616 75.2238 6.62392 74.3019 10.7088C75.8015 9.54672 76.4783 8.65889 78.9614 9.63998C78.6095 11.8755 77.1632 12.0844 74.8036 12.2137C75.991 12.9637 77.0194 13.4737 76.9721 15.5512C76.8852 19.3587 71.7462 20.3281 71.1902 17.232C71.0362 16.3742 71.2745 15.5764 72.0529 15.4451C73.0973 15.2693 72.991 16.3183 73.2395 16.9572C75.6553 17.504 75.2176 14.617 73.9327 13.7879C71.3954 12.1508 67.4823 15.8135 69.7991 19.1659C70.6218 20.3563 71.9424 20.915 73.7676 21.0146L73.7678 21.0147Z" fill="#8295BD"/>
<path fill-rule="evenodd" clip-rule="evenodd" d="M4.97713 12.7086L5.18008 12.8611C9.35701 15.7516 8.84935 14.7018 13.5574 19.593L15.2641 21.6193C20.7723 28.5821 24.1752 35.9351 27.502 44.221C27.776 44.9031 29.2738 49.3863 29.6851 49.8594C29.6851 47.7152 27.59 38.9285 27.0398 37.04C25.8013 32.7903 24.1284 28.3838 22.0498 24.7878C20.9484 22.8828 17.918 17.404 16.6164 16.534C16.2539 16.2915 5.55918 12.757 4.97726 12.7085L4.97713 12.7086Z" fill="#F58B1D"/>
<path fill-rule="evenodd" clip-rule="evenodd" d="M29.5071 50.5701L27.137 45.2969C26.256 43.5349 25.4675 41.9064 24.5218 40.2685C21.1371 34.404 16.3292 27.7221 11.421 22.7957C10.2547 21.625 10.7124 21.9492 9.04359 21.4401L0 18.7522L6.3441 23.7844C7.09272 24.4142 7.68232 24.9826 8.45695 25.5817C8.86974 25.9008 9.02216 26.0852 9.37417 26.4423L12.3982 29.2841C13.7072 30.5934 14.9415 31.7703 16.2234 33.1022C16.6239 33.5183 16.6622 33.6747 17.0209 34.0822C17.3563 34.4627 17.6606 34.682 17.9959 35.0625C20.9767 38.4446 26.4908 45.6896 28.6744 49.4475C28.9509 49.9237 29.1124 50.2812 29.5068 50.5701H29.5071Z" fill="#FEC20D"/>
</svg>
