<svg width="140" height="35" viewBox="0 0 140 35" fill="none" xmlns="http://www.w3.org/2000/svg">
<path d="M11.4895 11.4993H12.4009C12.4588 11.8031 12.5094 12.1503 12.5528 12.5409C12.6107 12.917 12.6613 13.3148 12.7047 13.7344C12.7481 14.1395 12.777 14.5445 12.7915 14.9496C12.8204 15.3547 12.8349 15.7308 12.8349 16.078H0.595978V14.6675L9.01567 2.29836H3.63401L2.3537 5.40149H1.44229C1.36995 5.08322 1.30485 4.72155 1.24698 4.31648C1.18912 3.91141 1.13848 3.50634 1.09508 3.10127C1.05168 2.68173 1.02275 2.28389 1.00828 1.90775C0.993815 1.51715 0.986582 1.17718 0.986582 0.887843H12.5745V2.29836L4.19822 14.6675H10.1441L11.4895 11.4993Z" fill="#1B315C"/>
<path d="M22.986 16.078H16.4109V15.2534C16.6568 15.1232 16.9389 15.0002 17.2572 14.8845C17.5899 14.7688 17.901 14.682 18.1903 14.6241V2.34176C17.8431 2.28389 17.5103 2.19709 17.1921 2.08136C16.8738 1.96562 16.6134 1.84265 16.4109 1.71245V0.887843H22.986V1.71245C22.769 1.85712 22.5231 1.98732 22.2482 2.10306C21.9878 2.21879 21.7202 2.29836 21.4453 2.34176V7.59322H27.1959V2.34176C26.8776 2.28389 26.5883 2.19709 26.3279 2.08136C26.0819 1.96562 25.8577 1.84265 25.6552 1.71245V0.887843H32.2303V1.71245C31.9844 1.87159 31.7023 2.00179 31.384 2.10306C31.0658 2.20432 30.7547 2.28389 30.4509 2.34176V14.6241C30.7837 14.682 31.1019 14.7688 31.4057 14.8845C31.724 15.0002 31.9989 15.1232 32.2303 15.2534V16.078H25.6552V15.2534C25.8722 15.1232 26.1109 15.0002 26.3713 14.8845C26.6317 14.7688 26.9065 14.682 27.1959 14.6241V9.00373H21.4453V14.6241C21.7347 14.682 22.0023 14.7615 22.2482 14.8628C22.4942 14.9641 22.7401 15.0943 22.986 15.2534V16.078Z" fill="#1B315C"/>
<path d="M35.1936 0.887843H41.8773V1.71245C41.3999 2.01626 40.8501 2.22602 40.2281 2.34176V10.6964C40.2281 11.4052 40.3076 11.9984 40.4668 12.4758C40.6259 12.9532 40.8574 13.3438 41.1612 13.6476C41.465 13.9369 41.8266 14.1467 42.2462 14.2769C42.6802 14.4071 43.1648 14.4722 43.7001 14.4722C44.1775 14.4722 44.6115 14.4071 45.0021 14.2769C45.4072 14.1322 45.7544 13.908 46.0437 13.6042C46.3475 13.3004 46.579 12.9025 46.7381 12.4107C46.8973 11.9188 46.9768 11.3112 46.9768 10.5878V2.45026C46.6441 2.37793 46.2969 2.27666 45.9352 2.14646C45.588 2.01626 45.2987 1.87159 45.0672 1.71245V0.887843H50.4489V1.71245C50.1885 1.90052 49.8991 2.05242 49.5809 2.16816C49.2626 2.28389 48.9516 2.37793 48.6478 2.45026V10.6095C48.6478 12.4613 48.1559 13.8718 47.1721 14.8411C46.2029 15.7959 44.8285 16.2733 43.0491 16.2733C41.1105 16.2733 39.6132 15.8393 38.5571 14.9713C37.5011 14.1033 36.973 12.7145 36.973 10.8049V2.34176C36.6837 2.29836 36.3799 2.22602 36.0616 2.12476C35.7433 2.00902 35.454 1.87159 35.1936 1.71245V0.887843Z" fill="#1B315C"/>
<path d="M53.375 16.078V15.2534C53.6499 15.0943 53.9392 14.9568 54.243 14.8411C54.5613 14.7254 54.8651 14.653 55.1544 14.6241V2.34176C54.8651 2.28389 54.5613 2.20432 54.243 2.10306C53.9248 1.98732 53.6354 1.85712 53.375 1.71245V0.887843H56.8688C57.4185 0.887843 57.9393 0.866143 58.4312 0.822744C58.923 0.779343 59.4872 0.757642 60.1238 0.757642C60.8182 0.757642 61.4909 0.808276 62.1419 0.909543C62.7929 1.01081 63.3716 1.19165 63.8779 1.45205C64.3843 1.71245 64.7893 2.08136 65.0931 2.55876C65.3969 3.0217 65.5489 3.62207 65.5489 4.35988C65.5489 4.82282 65.4621 5.25682 65.2884 5.6619C65.1293 6.0525 64.8978 6.3997 64.594 6.70351C64.3047 7.00731 63.9575 7.26048 63.5524 7.46302C63.1618 7.66555 62.7351 7.81022 62.2721 7.89702V7.98382C62.7351 8.04169 63.198 8.15019 63.6609 8.30932C64.1383 8.46846 64.5651 8.69993 64.9412 9.00373C65.3174 9.30754 65.6212 9.69091 65.8526 10.1538C66.0986 10.6023 66.2216 11.1376 66.2216 11.7597C66.2216 12.5409 66.048 13.2136 65.7007 13.7778C65.3535 14.342 64.8834 14.8049 64.2902 15.1666C63.7116 15.5283 63.0461 15.7959 62.2938 15.9695C61.5415 16.1286 60.7603 16.2082 59.9502 16.2082C59.6464 16.2082 59.3136 16.201 58.952 16.1865C58.5903 16.172 58.2286 16.1576 57.867 16.1431C57.5053 16.1286 57.1509 16.1142 56.8037 16.0997C56.4709 16.0852 56.1888 16.078 55.9573 16.078H53.375ZM59.9285 14.7977C60.8399 14.7977 61.556 14.5301 62.0768 13.9948C62.5976 13.445 62.858 12.7217 62.858 11.8248C62.858 11.275 62.7712 10.8266 62.5976 10.4793C62.424 10.1177 62.1853 9.83557 61.8815 9.63304C61.5777 9.41604 61.216 9.27137 60.7965 9.19903C60.377 9.11223 59.9213 9.06883 59.4294 9.06883H58.2793V14.6458C58.4818 14.6892 58.6916 14.7254 58.9086 14.7543C59.14 14.7832 59.48 14.7977 59.9285 14.7977ZM58.9737 7.65832C59.2196 7.65832 59.4655 7.65108 59.7115 7.63662C59.9574 7.60768 60.1889 7.57875 60.4059 7.54982C60.9701 7.31835 61.4258 6.96391 61.773 6.4865C62.1202 5.99463 62.2938 5.43766 62.2938 4.81559C62.2938 3.90418 62.0551 3.2387 61.5777 2.81917C61.1003 2.38516 60.4855 2.16816 59.7332 2.16816C59.4149 2.16816 59.14 2.17539 58.9086 2.18986C58.6771 2.20432 58.4673 2.22602 58.2793 2.25496V7.65832H58.9737Z" fill="#1B315C"/>
<path d="M74.7804 16.078H69.4205V15.2534C69.6519 15.1087 69.8979 14.9858 70.1583 14.8845C70.4331 14.7688 70.7008 14.682 70.9612 14.6241L76.5598 0.627441H78.1657L83.6124 14.6241C83.9018 14.682 84.1911 14.7688 84.4804 14.8845C84.7698 14.9858 85.0229 15.1087 85.2399 15.2534V16.078H78.4478V15.2534C78.7226 15.1232 79.0192 15.0002 79.3375 14.8845C79.6558 14.7688 79.9595 14.682 80.2489 14.6241L78.9903 11.1738H74.1728L72.8925 14.6241C73.558 14.7109 74.1873 14.9207 74.7804 15.2534V16.078ZM74.6936 9.76324H78.5346L77.1241 5.61849L76.7117 3.75227H76.6684L76.1909 5.6619L74.6936 9.76324Z" fill="#1B315C"/>
<path d="M98.2496 0.887843H103.631V1.71245C103.356 1.92946 103.053 2.12476 102.72 2.29836C102.387 2.45749 102.076 2.58046 101.787 2.66726V16.3384H99.9422L92.282 5.27129L91.414 3.60037H91.3489L91.5442 5.33639V14.3854C91.8335 14.4577 92.1518 14.5807 92.499 14.7543C92.8607 14.9134 93.1645 15.0798 93.4104 15.2534V16.078H88.0505V15.2534C88.3109 15.0798 88.593 14.9207 88.8968 14.776C89.215 14.6169 89.5406 14.4867 89.8733 14.3854V2.53706C89.584 2.42133 89.2946 2.29113 89.0053 2.14646C88.7159 2.00179 88.4555 1.84989 88.2241 1.69075V0.887843H92.9113L99.1393 9.91514L100.137 11.7814H100.224L100.116 9.91514V2.66726C99.7686 2.55153 99.4286 2.41409 99.0959 2.25496C98.7776 2.08136 98.4955 1.90052 98.2496 1.71245V0.887843Z" fill="#1B315C"/>
<path d="M107.295 8.48293C107.295 7.35451 107.454 6.3129 107.772 5.35809C108.09 4.38881 108.56 3.55697 109.182 2.86257C109.804 2.15369 110.571 1.60395 111.483 1.21335C112.394 0.822743 113.443 0.627441 114.629 0.627441C115.815 0.627441 116.864 0.822743 117.776 1.21335C118.687 1.60395 119.447 2.15369 120.054 2.86257C120.676 3.55697 121.146 4.38881 121.465 5.35809C121.783 6.3129 121.942 7.35451 121.942 8.48293C121.942 9.61134 121.783 10.6602 121.465 11.6295C121.146 12.5843 120.676 13.4161 120.054 14.125C119.447 14.8194 118.687 15.3619 117.776 15.7525C116.864 16.1431 115.815 16.3384 114.629 16.3384C113.443 16.3384 112.394 16.1431 111.483 15.7525C110.571 15.3619 109.804 14.8194 109.182 14.125C108.56 13.4161 108.09 12.5843 107.772 11.6295C107.454 10.6602 107.295 9.61134 107.295 8.48293ZM110.984 8.48293C110.984 9.4088 111.056 10.2696 111.201 11.0653C111.345 11.8465 111.569 12.5264 111.873 13.1051C112.192 13.6693 112.589 14.1178 113.067 14.4505C113.559 14.7688 114.145 14.9279 114.824 14.9279C115.447 14.9279 115.975 14.7688 116.409 14.4505C116.843 14.1178 117.197 13.6693 117.472 13.1051C117.747 12.5264 117.942 11.8465 118.058 11.0653C118.188 10.2696 118.253 9.4088 118.253 8.48293C118.253 7.55705 118.181 6.70351 118.036 5.9223C117.906 5.12662 117.689 4.44668 117.385 3.88248C117.096 3.3038 116.705 2.85533 116.213 2.53706C115.736 2.20432 115.15 2.03796 114.456 2.03796C113.79 2.03796 113.233 2.20432 112.785 2.53706C112.336 2.85533 111.975 3.3038 111.7 3.88248C111.439 4.44668 111.251 5.12662 111.135 5.9223C111.034 6.70351 110.984 7.55705 110.984 8.48293Z" fill="#1B315C"/>
<path d="M136.311 2.34176C135.964 2.26943 135.631 2.17539 135.313 2.05966C135.009 1.94392 134.734 1.82819 134.488 1.71245V0.887843H140V1.71245C139.826 1.82819 139.595 1.94392 139.306 2.05966C139.031 2.17539 138.741 2.26943 138.438 2.34176L133.447 16.078L131.298 16.3384L125.7 2.34176C125.41 2.26943 125.121 2.18262 124.832 2.08136C124.542 1.96562 124.289 1.84265 124.072 1.71245V0.887843H131.298V1.71245C131.052 1.82819 130.777 1.94392 130.474 2.05966C130.17 2.17539 129.852 2.26943 129.519 2.34176L132.557 10.8917L133.056 12.9315H133.099L133.577 10.8483L136.311 2.34176Z" fill="#1B315C"/>
<path d="M1.00876 25.8342H4.13214V26.1908C3.97638 26.2564 3.82062 26.3138 3.66486 26.363C3.5091 26.4121 3.35335 26.4572 3.19759 26.4982V31.5276C3.19759 31.9621 3.24267 32.3269 3.33285 32.622C3.43123 32.9089 3.57059 33.1426 3.75094 33.3229C3.93129 33.4951 4.15264 33.6222 4.41497 33.7041C4.6855 33.7779 4.98882 33.8148 5.32493 33.8148C5.97256 33.8148 6.47673 33.6386 6.83744 33.2861C7.19814 32.9253 7.3785 32.3351 7.3785 31.5153V26.6089C7.18995 26.5433 7.01369 26.4777 6.84974 26.4121C6.68578 26.3384 6.53822 26.2646 6.40705 26.1908V25.8342H9.02627V26.1908C8.87051 26.281 8.71065 26.363 8.54669 26.4367C8.39093 26.5105 8.23108 26.5679 8.06712 26.6089V31.5399C8.06712 32.0646 7.99744 32.5154 7.85807 32.8926C7.71871 33.2697 7.52196 33.5812 7.26783 33.8271C7.02189 34.073 6.71857 34.2575 6.35786 34.3805C6.00535 34.4952 5.61186 34.5526 5.17737 34.5526C4.15264 34.5526 3.36974 34.3231 2.82868 33.864C2.28762 33.3967 2.01709 32.6835 2.01709 31.7244V26.4982C1.68098 26.449 1.34487 26.3466 1.00876 26.1908V25.8342Z" fill="#1B315C"/>
<path d="M16.4889 25.8342H19.145V26.1908C18.8007 26.4203 18.4646 26.5843 18.1367 26.6827V34.5895H17.4357L12.972 27.814L12.4924 26.8548H12.4555L12.5662 27.814V33.655C12.9023 33.7451 13.2179 33.8886 13.5131 34.0853V34.4419H10.857V34.0853C11.0045 33.9952 11.1603 33.9173 11.3242 33.8517C11.4964 33.7779 11.6767 33.7123 11.8653 33.655V26.6089C11.7013 26.5433 11.5374 26.4736 11.3734 26.3998C11.2177 26.3261 11.0701 26.2523 10.9307 26.1785V25.8342H13.0089L16.8824 31.6752L17.448 32.7327H17.4972L17.4357 31.6752V26.6827C17.2636 26.6089 17.0955 26.531 16.9316 26.449C16.7758 26.3671 16.6283 26.281 16.4889 26.1908V25.8342Z" fill="#1B315C"/>
<path d="M24.5977 34.4419H21.4497V34.0853C21.7694 33.9378 22.0973 33.8394 22.4334 33.7902V26.4982C22.2695 26.4654 22.1055 26.4244 21.9416 26.3752C21.7776 26.3179 21.6136 26.2564 21.4497 26.1908V25.8342H24.5977V26.1908C24.4501 26.2564 24.2902 26.3179 24.1181 26.3752C23.9459 26.4244 23.7779 26.4654 23.6139 26.4982V33.7902C23.7861 33.823 23.9582 33.864 24.1304 33.9132C24.3025 33.9624 24.4583 34.0198 24.5977 34.0853V34.4419Z" fill="#1B315C"/>
<path d="M33.2369 26.4982C33.0402 26.4572 32.8557 26.4121 32.6836 26.363C32.5114 26.3056 32.3434 26.2482 32.1794 26.1908V25.8342H34.9462V26.1908C34.7085 26.322 34.4133 26.4244 34.0608 26.4982L31.2817 34.4419L30.6054 34.5895L27.4697 26.4982C27.3058 26.4572 27.1459 26.4121 26.9902 26.363C26.8344 26.3056 26.6827 26.2482 26.5352 26.1908V25.8342H29.7938V26.1908C29.6545 26.2482 29.4987 26.3056 29.3266 26.363C29.1544 26.4121 28.974 26.4572 28.7855 26.4982L30.8882 32.1179L31.1465 33.1016H31.1711L31.417 32.0933L33.2369 26.4982Z" fill="#1B315C"/>
<path d="M42.4791 25.8342C42.4709 26.1621 42.4545 26.4941 42.4299 26.8302C42.4136 27.1581 42.3849 27.4902 42.3439 27.8263H42.0242L41.52 26.4736H38.8393V29.7323H40.8437L41.3232 28.8223H41.6307C41.6798 29.6339 41.6798 30.4619 41.6307 31.3063H41.3232L40.8437 30.3717H38.8393V33.8025H41.6675L42.2701 32.3269H42.5775C42.6349 32.6712 42.6759 33.0196 42.7005 33.3721C42.7251 33.7246 42.7292 34.0812 42.7128 34.4419H36.6504V34.0853C36.9374 33.9542 37.2735 33.8558 37.6588 33.7902V26.4982C37.4948 26.4654 37.3268 26.4244 37.1546 26.3752C36.9825 26.3179 36.8144 26.2564 36.6504 26.1908V25.8342H42.4791Z" fill="#1B315C"/>
<path d="M47.349 33.7902C47.5376 33.8312 47.718 33.8763 47.8901 33.9255C48.0623 33.9665 48.2303 34.0198 48.3943 34.0853V34.4419H45.1602V34.0853C45.3406 34.0034 45.5127 33.9419 45.6767 33.9009C45.8406 33.8599 46.0046 33.823 46.1686 33.7902V26.4982C45.9554 26.4572 45.7669 26.4121 45.6029 26.363C45.4389 26.3056 45.2914 26.2482 45.1602 26.1908V25.8342H46.2423C46.5703 25.8342 46.9269 25.8178 47.3122 25.785C47.7057 25.7522 48.0869 25.7358 48.4558 25.7358C48.8575 25.7358 49.2305 25.7809 49.5748 25.8711C49.9273 25.9613 50.2306 26.1047 50.4847 26.3015C50.7389 26.4982 50.9356 26.7483 51.075 27.0516C51.2225 27.3549 51.2963 27.7197 51.2963 28.146C51.2963 28.7444 51.1365 29.2404 50.8167 29.6339C50.5052 30.0274 50.0789 30.3102 49.5379 30.4824C49.8904 31.0398 50.2593 31.5932 50.6446 32.1424C51.0299 32.6917 51.4316 33.2369 51.8497 33.7779L52.5137 34.1345V34.4419H51.0258L50.5585 34.0976C50.329 33.8107 50.1199 33.532 49.9314 33.2615C49.7428 32.9827 49.5666 32.704 49.4026 32.4253C49.2387 32.1383 49.0829 31.8514 48.9353 31.5645C48.796 31.2694 48.6525 30.9579 48.505 30.6299H47.349V33.7902ZM48.1852 26.3752C47.9885 26.3752 47.8245 26.3793 47.6934 26.3875C47.5704 26.3957 47.4556 26.4121 47.349 26.4367V30.1135H48.2344C48.8001 30.1135 49.2469 29.9331 49.5748 29.5724C49.9109 29.2117 50.0789 28.7362 50.0789 28.146C50.0789 27.5393 49.9027 27.0926 49.5502 26.8056C49.1977 26.5187 48.7427 26.3752 48.1852 26.3752Z" fill="#1B315C"/>
<path d="M55.8304 33.5935C55.9288 33.6918 56.0558 33.7779 56.2116 33.8517C56.3673 33.9173 56.601 33.9501 56.9125 33.9501C57.1748 33.9501 57.4208 33.9173 57.6503 33.8517C57.8798 33.7779 58.0766 33.6754 58.2406 33.5443C58.4127 33.4049 58.548 33.241 58.6463 33.0524C58.7447 32.8557 58.7939 32.6343 58.7939 32.3884C58.7939 32.0605 58.6914 31.7858 58.4865 31.5645C58.2897 31.3432 58.0397 31.1464 57.7364 30.9743C57.4413 30.8021 57.1174 30.634 56.7649 30.4701C56.4124 30.3061 56.0845 30.1135 55.7812 29.8921C55.4861 29.6626 55.236 29.3921 55.0311 29.0805C54.8343 28.7608 54.736 28.3632 54.736 27.8878C54.736 27.5434 54.7975 27.236 54.9204 26.9655C55.0434 26.695 55.2155 26.4654 55.4369 26.2769C55.6664 26.0883 55.937 25.9449 56.2485 25.8465C56.56 25.7399 56.9084 25.6866 57.2937 25.6866C57.7938 25.6866 58.2488 25.7276 58.6586 25.8096C59.0767 25.8834 59.4047 25.9777 59.6424 26.0924C59.6424 26.2318 59.6301 26.3957 59.6055 26.5843C59.5891 26.7646 59.5645 26.9532 59.5317 27.1499C59.5071 27.3467 59.4784 27.5393 59.4456 27.7279C59.4128 27.9082 59.3801 28.0681 59.3473 28.2075H59.0275L58.5357 26.5228C58.3881 26.4572 58.1996 26.408 57.97 26.3752C57.7487 26.3425 57.5109 26.3261 57.2568 26.3261C56.8387 26.3261 56.5026 26.4449 56.2485 26.6827C55.9943 26.9122 55.8673 27.236 55.8673 27.6541C55.8673 27.9902 55.9656 28.2731 56.1624 28.5026C56.3673 28.7321 56.6215 28.9371 56.9248 29.1174C57.2281 29.2978 57.5519 29.474 57.8962 29.6462C58.2488 29.8102 58.5767 30.0028 58.88 30.2241C59.1833 30.4455 59.4333 30.7078 59.6301 31.0111C59.835 31.3145 59.9375 31.6916 59.9375 32.1424C59.9375 32.5114 59.8678 32.8475 59.7285 33.1508C59.5973 33.4541 59.4047 33.7123 59.1505 33.9255C58.8964 34.1386 58.5849 34.3026 58.216 34.4174C57.8471 34.5321 57.429 34.5895 56.9617 34.5895C56.4452 34.5895 55.982 34.528 55.5722 34.4051C55.1623 34.2821 54.8712 34.1509 54.6991 34.0116C54.7073 33.8722 54.7196 33.7041 54.736 33.5074C54.7606 33.3106 54.7852 33.1098 54.8097 32.9049C54.8425 32.6917 54.8753 32.4868 54.9081 32.29C54.9409 32.0933 54.9737 31.9252 55.0065 31.7858H55.3262L55.8304 33.5935Z" fill="#1B315C"/>
<path d="M65.6695 34.4419H62.5215V34.0853C62.8412 33.9378 63.1691 33.8394 63.5052 33.7902V26.4982C63.3413 26.4654 63.1773 26.4244 63.0133 26.3752C62.8494 26.3179 62.6854 26.2564 62.5215 26.1908V25.8342H65.6695V26.1908C65.5219 26.2564 65.362 26.3179 65.1899 26.3752C65.0177 26.4244 64.8497 26.4654 64.6857 26.4982V33.7902C64.8579 33.823 65.03 33.864 65.2022 33.9132C65.3743 33.9624 65.5301 34.0198 65.6695 34.0853V34.4419Z" fill="#1B315C"/>
<path d="M73.1405 34.4419H69.6851V34.0853C69.8655 34.0198 70.0458 33.9624 70.2262 33.9132C70.4147 33.864 70.6156 33.823 70.8287 33.7902V26.4736H68.9473L68.2956 28.2321H67.9882C67.9636 28.0681 67.9431 27.8837 67.9267 27.6787C67.9103 27.4656 67.8939 27.2524 67.8775 27.0393C67.8693 26.8179 67.8611 26.6048 67.8529 26.3998C67.8447 26.1867 67.8406 25.9981 67.8406 25.8342H74.985C74.985 25.9981 74.9809 26.1826 74.9727 26.3875C74.9645 26.5925 74.9522 26.8056 74.9359 27.027C74.9277 27.2401 74.9154 27.4533 74.899 27.6664C74.8908 27.8714 74.8744 28.0599 74.8498 28.2321H74.5301L73.8906 26.4736H72.0092V33.7902C72.2224 33.8312 72.4191 33.8722 72.5995 33.9132C72.788 33.9542 72.9684 34.0116 73.1405 34.0853V34.4419Z" fill="#1B315C"/>
<path d="M81.7869 25.8342H84.4922V26.1908C84.1807 26.3466 83.8692 26.449 83.5576 26.4982L81.2336 30.7775V33.7902C81.5533 33.8312 81.8648 33.9296 82.1681 34.0853V34.4419H79.0447V34.0853C79.3398 33.9378 79.676 33.8394 80.0531 33.7902V30.7898L77.5691 26.4982C77.3806 26.4654 77.2043 26.4244 77.0403 26.3752C76.8846 26.3179 76.7288 26.2564 76.5731 26.1908V25.8342H79.8317V26.1908C79.7087 26.24 79.5694 26.2933 79.4136 26.3507C79.2579 26.3998 79.0816 26.449 78.8849 26.4982L80.9015 30.1135L82.7952 26.4982C82.6067 26.4572 82.4263 26.4121 82.2542 26.363C82.0902 26.3056 81.9345 26.2482 81.7869 26.1908V25.8342Z" fill="#1B315C"/>
</svg>
