<svg width="10" height="10" viewBox="0 0 10 10" fill="none" xmlns="http://www.w3.org/2000/svg">
<path d="M5.70449 4.99957L8.85221 1.85652C8.94629 1.76242 8.99915 1.6348 8.99915 1.50174C8.99915 1.36867 8.94629 1.24105 8.85221 1.14696C8.75812 1.05286 8.63052 1 8.49747 1C8.36441 1 8.23681 1.05286 8.14272 1.14696L5 4.29501L1.85728 1.14696C1.76319 1.05286 1.63559 1 1.50253 1C1.36948 1 1.24188 1.05286 1.14779 1.14696C1.05371 1.24105 1.00085 1.36867 1.00085 1.50174C1.00085 1.6348 1.05371 1.76242 1.14779 1.85652L4.29551 4.99957L1.14779 8.14263C1.10096 8.18908 1.06379 8.24435 1.03843 8.30524C1.01306 8.36613 1 8.43145 1 8.49741C1 8.56338 1.01306 8.62869 1.03843 8.68958C1.06379 8.75047 1.10096 8.80574 1.14779 8.85219C1.19424 8.89903 1.2495 8.9362 1.31039 8.96157C1.37127 8.98694 1.43658 9 1.50253 9C1.56849 9 1.6338 8.98694 1.69468 8.96157C1.75557 8.9362 1.81083 8.89903 1.85728 8.85219L5 5.70414L8.14272 8.85219C8.18917 8.89903 8.24443 8.9362 8.30532 8.96157C8.3662 8.98694 8.43151 9 8.49747 9C8.56342 9 8.62873 8.98694 8.68961 8.96157C8.7505 8.9362 8.80576 8.89903 8.85221 8.85219C8.89904 8.80574 8.93621 8.75047 8.96158 8.68958C8.98694 8.62869 9 8.56338 9 8.49741C9 8.43145 8.98694 8.36613 8.96158 8.30524C8.93621 8.24435 8.89904 8.18908 8.85221 8.14263L5.70449 4.99957Z" fill="white" stroke="white" stroke-width="0.2"/>
</svg>
