<svg width="12" height="14" viewBox="0 0 12 14" fill="none" xmlns="http://www.w3.org/2000/svg">
<path d="M0.0799999 6.62C0.127594 6.49725 0.19896 6.38511 0.290001 6.29L5.29 1.29C5.38324 1.19676 5.49393 1.1228 5.61575 1.07234C5.73757 1.02188 5.86814 0.995911 6 0.995911C6.2663 0.995911 6.5217 1.1017 6.71 1.29C6.80324 1.38324 6.8772 1.49393 6.92766 1.61575C6.97812 1.73758 7.00409 1.86814 7.00409 2C7.00409 2.2663 6.8983 2.5217 6.71 2.71L3.41 6H11C11.2652 6 11.5196 6.10536 11.7071 6.2929C11.8946 6.48043 12 6.73479 12 7C12 7.26522 11.8946 7.51957 11.7071 7.70711C11.5196 7.89465 11.2652 8 11 8H3.41L6.71 11.29C6.80373 11.383 6.87812 11.4936 6.92889 11.6154C6.97966 11.7373 7.0058 11.868 7.0058 12C7.0058 12.132 6.97966 12.2627 6.92889 12.3846C6.87812 12.5064 6.80373 12.617 6.71 12.71C6.61704 12.8037 6.50644 12.8781 6.38458 12.9289C6.26272 12.9797 6.13201 13.0058 6 13.0058C5.86799 13.0058 5.73728 12.9797 5.61542 12.9289C5.49356 12.8781 5.38296 12.8037 5.29 12.71L0.290001 7.71C0.19896 7.6149 0.127594 7.50275 0.0799999 7.38C-0.0200176 7.13654 -0.0200176 6.86346 0.0799999 6.62Z" fill="#636F81"/>
</svg>
