<svg width="10" height="8" viewBox="0 0 10 8" fill="none" xmlns="http://www.w3.org/2000/svg">
<path d="M9.47346 0.806696C9.41149 0.74421 9.33775 0.694614 9.25651 0.660768C9.17527 0.626922 9.08814 0.609497 9.00013 0.609497C8.91212 0.609497 8.82498 0.626922 8.74374 0.660768C8.6625 0.694614 8.58877 0.74421 8.5268 0.806696L3.56013 5.78003L1.47346 3.6867C1.40911 3.62454 1.33315 3.57566 1.24992 3.54286C1.16668 3.51006 1.0778 3.49397 0.988344 3.49552C0.89889 3.49706 0.810617 3.51622 0.728565 3.55188C0.646513 3.58754 0.572288 3.63902 0.510129 3.70336C0.44797 3.76771 0.399094 3.84367 0.366292 3.92691C0.333489 4.01014 0.317402 4.09903 0.31895 4.18848C0.320497 4.27793 0.339649 4.36621 0.375311 4.44826C0.410974 4.53031 0.462448 4.60454 0.526796 4.6667L3.0868 7.2267C3.14877 7.28918 3.22251 7.33878 3.30374 7.37262C3.38498 7.40647 3.47212 7.42389 3.56013 7.42389C3.64814 7.42389 3.73527 7.40647 3.81651 7.37262C3.89775 7.33878 3.97149 7.28918 4.03346 7.2267L9.47346 1.7867C9.54113 1.72427 9.59514 1.6485 9.63208 1.56417C9.66901 1.47983 9.68808 1.38876 9.68808 1.2967C9.68808 1.20463 9.66901 1.11356 9.63208 1.02923C9.59514 0.944892 9.54113 0.869124 9.47346 0.806696Z" fill="white"/>
</svg>
