<svg width="62" height="62" viewBox="0 0 62 62" fill="none" xmlns="http://www.w3.org/2000/svg">
<circle cx="31" cy="31" r="31" fill="#E6E6E6"/>
<path fill-rule="evenodd" clip-rule="evenodd" d="M22.3063 35.9682L23.9093 37.1463C22.8403 38.9813 22.5784 41.4635 22.9477 43.8676H20.5557C20.7162 44.0445 20.7655 43.9891 21.0976 43.9852C26.2375 43.9258 31.5476 43.9837 36.7113 43.9743C37.3351 43.9731 38.5006 43.789 38.7107 44.3342C39.0617 45.2448 37.9969 45.1789 37.344 45.178C36.5701 45.1768 35.7979 45.185 35.0237 45.1792L21.1207 45.1722C21.3111 45.6725 21.6913 46.2426 21.9354 46.6917C22.1976 47.1742 22.4865 47.577 23.0683 47.7384C23.6785 47.9077 26.5704 47.7924 27.4301 47.7957C30.3591 47.807 33.2898 47.7985 36.2191 47.7985C37.7315 47.7985 39.1502 48.0997 39.8836 47.0409C40.1091 46.7153 41.3518 44.5242 41.4319 44.2261C41.7476 43.0525 41.7365 41.341 41.5078 40.1188C41.3974 39.5289 41.2495 38.9458 41.0485 38.4062C40.7223 37.5305 40.5238 37.5584 41.0696 36.9063C40.6998 36.1963 40.2147 35.641 39.8752 35.0098C39.6986 35.0746 38.5225 36.0634 38.1564 36.3148C34.0522 39.135 28.6312 39.1919 24.3852 36.6461C23.7596 36.271 23.1374 35.6727 22.6411 35.4249L22.3062 35.9682H22.3063Z" fill="#DEE7F5"/>
<path fill-rule="evenodd" clip-rule="evenodd" d="M33.4175 15.783C33.529 15.9079 34.548 16.5339 34.8004 16.7395C36.3896 18.0348 36.7911 19.7644 36.7904 21.8595C36.7894 24.0164 37.0502 29.3023 36.4046 30.9754C34.8501 35.0034 29.844 35.6773 27.2589 33.2799C26.7465 32.8048 24.8974 30.6961 26.0261 30.5077C26.0135 30.0658 25.8559 29.6193 25.8355 29.0985C25.8153 28.5833 25.8578 28.0648 25.8134 27.5517C25.2799 25.8977 25.2315 25.7041 25.2391 23.7582C25.2454 22.1488 25.2107 21.0254 25.4547 19.4694C24.9712 19.7469 23.8157 21.4266 23.419 22.1325C22.1187 24.4452 21.618 26.9587 21.9895 29.634C22.0764 30.2602 22.351 31.0647 22.3891 31.5668C22.4473 32.3337 21.8467 32.7187 21.0782 32.53L20.9614 32.5819C21.2485 33.1519 21.846 33.6258 22.1568 34.0955C23.0164 33.7427 22.9658 34.1185 24.2111 35.064C24.8326 35.5358 25.5463 35.9436 26.3431 36.3038C31.6043 38.6827 37.5629 36.654 40.5663 32.2537C42.5202 29.391 43.275 25.3408 41.7817 21.5719C41.1386 19.9485 40.0709 18.3946 39.1076 17.4953C38.253 16.6975 36.4652 15.298 34.8837 14.896C34.9858 15.8237 34.2439 15.8834 33.4175 15.7833V15.783Z" fill="#DEE7F6"/>
<path fill-rule="evenodd" clip-rule="evenodd" d="M20.9611 32.5815L21.0779 32.5297C21.4608 31.9676 20.9476 31.4357 20.6906 30.9159C20.4263 30.3812 20.2292 29.9263 20.0334 29.3274C18.079 23.3502 21.3257 16.8694 27.2326 14.8406C28.4434 14.4247 29.7586 14.1851 31.1583 14.2024C31.9831 14.2127 34.3658 14.5011 34.8835 14.8955C36.465 15.2975 38.2528 16.697 39.1074 17.4948C40.0708 18.3941 41.1384 19.9482 41.7815 21.5714C43.2747 25.3403 42.52 29.3906 40.5661 32.2532C37.5627 36.6537 31.6041 38.6824 26.3429 36.3033C25.5461 35.943 24.8325 35.5353 24.2109 35.0635C22.9655 34.1181 23.0162 33.7422 22.1566 34.0951C21.946 34.4057 21.6576 34.6975 21.413 35.0376C19.492 37.7086 18.5993 41.2959 19.4437 44.6113C19.5667 45.0945 20.3569 46.3507 20.6336 46.8667C21.0517 47.6462 21.4482 48.3735 22.2757 48.7403C22.6288 48.8968 23.0193 48.9692 23.4389 49H25.4613H35.9378H38.3436C40.3418 48.9282 40.6193 48.386 42.408 45.064C43.1667 43.6547 42.9127 40.6053 42.506 38.9864C42.3815 38.4907 42.2268 38.0769 42.0654 37.6691C41.8368 37.0914 41.87 36.9062 41.0695 36.9062C40.5238 37.5583 40.7222 37.5304 41.0484 38.4062C41.2494 38.9457 41.3972 39.5288 41.5077 40.1187C41.7363 41.3408 41.7475 43.0524 41.4318 44.226C41.3515 44.5242 40.109 46.7152 39.8834 47.0408C39.15 48.0995 37.7313 47.7984 36.2189 47.7984C33.2897 47.7984 30.3589 47.807 27.4299 47.7957C26.5702 47.7924 23.6784 47.9078 23.0682 47.7384C22.4864 47.5769 22.1974 47.1741 21.9353 46.6916C21.6911 46.2425 21.311 45.6725 21.1205 45.1721L35.0236 45.1791C35.7977 45.1849 36.57 45.1767 37.3439 45.1779C37.9966 45.1788 39.0614 45.2447 38.7105 44.3341C38.5004 43.789 37.3348 43.9731 36.7112 43.9742C31.5474 43.9836 26.2374 43.9259 21.0974 43.9851C20.7653 43.989 20.7161 44.0442 20.5555 43.8676C20.1789 42.8586 20.4207 40.4411 20.6908 39.3826C20.9172 38.4955 21.7981 36.3078 22.3062 35.9681L22.6411 35.4248C23.1374 35.6727 23.7596 36.2709 24.3851 36.646C28.6312 39.1918 34.0521 39.135 38.1564 36.3147C38.5224 36.0633 39.6984 35.0745 39.8752 35.0097C40.2313 34.4688 41.1204 33.7458 41.8927 32.455C46.967 23.975 41.1306 13.9941 32.6903 13.0834C32.2372 13.0344 31.7929 13.0073 31.3576 13H30.9004C25.8636 13.078 22.1105 15.8515 20.2179 18.9363C19.5837 19.9698 19.1618 20.8683 18.7726 22.1316C18.5276 22.927 18.092 25.0899 18.2492 26.1886C18.5331 28.1728 18.279 27.9273 19.0007 30.0778C19.2015 30.6764 19.4428 31.1223 19.719 31.6799C19.8985 32.0422 20.3076 33.086 20.9614 32.5814L20.9611 32.5815Z" fill="#516B79"/>
<path fill-rule="evenodd" clip-rule="evenodd" d="M21.0781 32.5298C21.8465 32.7184 22.4472 32.3334 22.3889 31.5665C22.3509 31.0644 22.0762 30.2599 21.9893 29.6337C21.6179 26.9586 22.1186 24.445 23.4188 22.1322C23.8156 21.4264 24.9711 19.7466 25.4545 19.4691C25.7836 18.938 25.5657 18.7066 26.5452 17.4598C27.8358 15.8169 30.0247 15.021 32.163 15.4402C32.5695 15.52 33.1001 15.7733 33.4175 15.7828C34.2439 15.8829 34.9858 15.8232 34.8836 14.8955C34.3659 14.501 31.9832 14.2126 31.1585 14.2024C29.7586 14.1851 28.4436 14.4246 27.2327 14.8405C21.3258 16.8693 18.0791 23.3502 20.0335 29.3274C20.2293 29.9264 20.4264 30.3813 20.6908 30.9159C20.9478 31.4357 21.4609 31.9677 21.0781 32.5296V32.5298Z" fill="#EAF3FB"/>
<path fill-rule="evenodd" clip-rule="evenodd" d="M30.6357 22.3429C31.177 22.2599 31.7566 22.4301 31.5863 23.1098C31.4523 23.6443 30.817 23.4197 30.3153 23.6958C29.4572 24.168 29.2471 25.4271 30.0593 26.1203C30.9147 26.8505 32.1015 26.3686 32.4064 25.5088C32.5938 24.9804 32.4443 24.3163 33.1809 24.4073C33.7737 24.4806 33.7589 25.1466 33.6281 25.6711C33.1298 27.6686 30.4387 28.4381 29.0384 26.8611C27.5502 25.185 28.4943 22.6714 30.6358 22.3431L30.6357 22.3429ZM32.7562 29.8196C33.4736 29.7091 34.0237 29.2051 34.4479 28.8781C34.7124 28.6743 34.8648 28.4698 35.0611 28.2235C35.2382 28.0012 35.3945 27.6805 35.5918 27.4971C35.5795 24.4532 35.7209 22.8032 33.7288 21.3255C31.3603 19.5686 28.2025 20.4899 26.9822 22.8247C25.2056 26.2239 27.8894 29.72 31.2265 29.5705C31.9397 29.5385 32.4688 29.1851 32.7562 29.8196Z" fill="#EBB492"/>
<path fill-rule="evenodd" clip-rule="evenodd" d="M32.7562 29.8196C33.17 31.3927 29.4776 30.6442 28.7029 30.2906C26.6102 29.3352 26.1814 27.9148 25.813 27.5515C25.8574 28.0647 25.8149 28.5832 25.8351 29.0983C25.8555 29.6192 26.0131 30.0657 26.0257 30.5076C26.999 30.0762 26.6133 31.402 28.4353 32.6671C29.3607 33.3095 30.7946 33.6808 32.151 33.3316C33.4023 33.0094 34.3068 32.2164 34.8482 31.387C35.6569 30.1478 35.5708 29.148 35.5917 27.4971C35.3944 27.6805 35.2381 28.0013 35.061 28.2234C34.8647 28.4698 34.7123 28.6743 34.4478 28.8781C34.0236 29.2051 33.4737 29.7091 32.7561 29.8196H32.7562Z" fill="#FAC5A3"/>
<path fill-rule="evenodd" clip-rule="evenodd" d="M26.0151 22.1513C27.1866 21.0749 28.033 19.2779 31.0168 19.2913C33.3945 19.3019 35.0124 20.7044 35.9971 22.1251C36.1923 18.6787 33.8296 15.7962 31.0173 15.8112C28.1459 15.8265 25.793 18.6252 26.015 22.1515L26.0151 22.1513Z" fill="#FBC6A4"/>
<path fill-rule="evenodd" clip-rule="evenodd" d="M20.5555 43.8677H22.9476C22.5783 41.4635 22.8402 38.9813 23.9091 37.1463L22.3062 35.9682C21.7981 36.3079 20.9172 38.4956 20.6908 39.3827C20.4207 40.4412 20.1789 42.8587 20.5555 43.8677Z" fill="#EBF4FC"/>
<path fill-rule="evenodd" clip-rule="evenodd" d="M30.6357 22.3429C28.4944 22.6711 27.5501 25.1849 29.0383 26.861C30.4386 28.4379 33.1298 27.6684 33.628 25.6709C33.7588 25.1465 33.7736 24.4806 33.1808 24.4072C32.444 24.3162 32.5937 24.9803 32.4064 25.5086C32.1014 26.3686 30.9146 26.8503 30.0592 26.1202C29.247 25.4269 29.4571 24.1679 30.3152 23.6956C30.8169 23.4195 31.4522 23.6442 31.5862 23.1097C31.7565 22.4299 31.1769 22.2598 30.6356 22.3428L30.6357 22.3429Z" fill="#516B79"/>
<path fill-rule="evenodd" clip-rule="evenodd" d="M26.441 21.4466C26.2379 18.7043 28.39 16.5278 31.0163 16.5158C33.5886 16.5041 35.7497 18.7459 35.571 21.4261C34.6704 20.3213 33.1905 19.2306 31.0157 19.2223C28.2866 19.2119 27.5124 20.6094 26.441 21.4465V21.4466ZM25.4543 19.4693C25.2104 21.0253 25.2451 22.1487 25.2387 23.758C25.2311 25.7039 25.2795 25.8975 25.813 27.5515C26.1814 27.9148 26.6101 29.3352 28.7029 30.2906C29.4775 30.6442 33.17 31.3927 32.7562 29.8196C32.4688 29.1851 31.9397 29.5385 31.2266 29.5705C27.8893 29.72 25.2056 26.2239 26.9822 22.8247C28.2026 20.49 31.3602 19.5686 33.7288 21.3255C35.721 22.8034 35.5795 24.4532 35.5918 27.4971C35.5709 29.148 35.657 30.1478 34.8483 31.387C34.3069 32.2164 33.4024 33.0093 32.1511 33.3316C30.7946 33.6808 29.3608 33.3095 28.4354 32.6671C26.6134 31.402 26.9991 30.0764 26.0258 30.5076C24.8972 30.6959 26.7462 32.8048 27.2586 33.2798C29.8438 35.6772 34.8499 35.0033 36.4043 30.9753C37.0499 29.3022 36.7892 24.0163 36.7901 21.8594C36.7908 19.7643 36.3893 18.0347 34.8001 16.7394C34.5478 16.5337 33.5288 15.9078 33.4172 15.7828C33.1 15.7733 32.5693 15.52 32.1627 15.4402C30.0244 15.0208 27.8354 15.8168 26.5449 17.4598C25.5655 18.7066 25.7833 18.938 25.4543 19.4691V19.4693Z" fill="#516B79"/>
</svg>
